<?xml version="1.0" encoding="utf-8"?>
<!-- Generator: Adobe Illustrator 17.1.0, SVG Export Plug-In . SVG Version: 6.00 Build 0)  -->
<!DOCTYPE svg PUBLIC "-//W3C//DTD SVG 1.1//EN" "http://www.w3.org/Graphics/SVG/1.1/DTD/svg11.dtd">
<svg version="1.1" id="Layer_1" xmlns="http://www.w3.org/2000/svg" xmlns:xlink="http://www.w3.org/1999/xlink" x="0px" y="0px"
	 viewBox="0 0 500 500" enable-background="new 0 0 500 500" xml:space="preserve">
<path fill="#E56153" d="M406.2,0L218.6,62.4h-93.8c-51.9,0-93.8,41.9-93.8,93.8c-17.1,0-31.4,13.8-31.4,31.4S13.3,219,31,219
	c0,38.6,23.3,71.4,56.7,86.2L62.4,469c0,17.1,13.8,31.4,31.4,31.4h62.4c17.1,0,31.4-13.8,31.4-31.4L211,312.9h7.6l187.6,62.4
	c51.9,0,93.8-83.8,93.8-187.6S458.1,0,406.2,0z M124.8,187.6H93.3v-62.9h31.4V187.6z M187.6,187.6h-31.4v-62.9h31.4V187.6z
	 M406.2,312.4c-34.3,0-62.4-56.2-62.4-124.8s28.1-124.8,62.4-124.8s62.4,56.2,62.4,124.8S441,312.4,406.2,312.4z M406.2,156.2h-28.6
	c-1.9,10-2.9,20-2.9,31.4s1,21.4,2.9,31.4h28.6c17.1,0,31.4-13.8,31.4-31.4S423.3,156.2,406.2,156.2z"/>
</svg>
