<svg xmlns="http://www.w3.org/2000/svg" viewBox="0 0 500 500" enable-background="new 0 0 500 500"><path fill="#E56153" d="M406.2 0l-187.6 62.4h-93.8c-51.9 0-93.8 41.9-93.8 93.8-17.1 0-31.4 13.8-31.4 31.4s13.7 31.4 31.4 31.4c0 38.6 23.3 71.4 56.7 86.2l-25.3 163.8c0 17.1 13.8 31.4 31.4 31.4h62.4c17.1 0 31.4-13.8 31.4-31.4l23.4-156.1h7.6l187.6 62.4c51.9 0 93.8-83.8 93.8-187.6s-41.9-187.7-93.8-187.7zm-281.4 187.6h-31.5v-62.9h31.4v62.9zm62.8 0h-31.4v-62.9h31.4v62.9zm218.6 124.8c-34.3 0-62.4-56.2-62.4-124.8s28.1-124.8 62.4-124.8 62.4 56.2 62.4 124.8-27.6 124.8-62.4 124.8zm0-156.2h-28.6c-1.9 10-2.9 20-2.9 31.4s1 21.4 2.9 31.4h28.6c17.1 0 31.4-13.8 31.4-31.4s-14.3-31.4-31.4-31.4z"/></svg>